<svg width="363" height="52" viewBox="0 0 363 52" fill="none" xmlns="http://www.w3.org/2000/svg">
<path d="M16.3409 42.5H4.75C2.12665 42.5 0 44.6266 0 47.25C0 49.8734 2.12664 52 4.74999 52H357.75C360.373 52 362.5 49.8734 362.5 47.25C362.5 44.6266 360.373 42.5 357.75 42.5H346.159C342.493 42.5 338.934 41.2673 336.053 39L297.386 8.56748C290.334 3.01753 281.621 0 272.647 0H89.8529C80.8791 0 72.166 3.01753 65.1143 8.56748L26.4471 39C23.5663 41.2673 20.0068 42.5 16.3409 42.5Z" fill="#F1F0EB"/>
</svg>
